<svg width="160" height="177" viewBox="0 0 160 177" fill="none" xmlns="http://www.w3.org/2000/svg">
<g id="Group 2190">
<g id="Group 2188">
<path id="Vector" d="M45.9952 61.2379C44.1964 63.2628 43.333 65.9353 42.4285 68.433C41.7706 70.2729 41.1436 72.1231 40.4549 73.9424C39.7765 75.7412 39.0879 77.5399 38.4095 79.3284C37.6489 81.3328 36.8882 83.3269 36.1379 85.3312C35.3259 87.4692 34.5138 89.6072 33.7121 91.7349C32.8795 93.9345 32.0469 96.1342 31.2041 98.3441C30.3715 100.544 29.5389 102.743 28.7064 104.943C27.9046 107.071 27.0926 109.198 26.2909 111.326C25.5405 113.31 24.7799 115.304 24.0295 117.288C23.3511 119.066 22.683 120.844 22.0046 122.622C21.4393 124.123 20.8637 125.624 20.2984 127.125C19.8564 128.276 19.4247 129.437 18.9827 130.588C18.7052 131.328 18.4276 132.069 18.1398 132.809C18.0473 133.066 17.9445 133.312 17.852 133.569C16.9064 136.067 17.7904 138.524 19.5377 140.004C21.0076 141.741 23.4745 142.635 25.9722 141.689C26.2292 141.597 26.4759 141.494 26.7328 141.402C27.4729 141.124 28.213 140.847 28.953 140.559C30.1043 140.117 31.2658 139.685 32.417 139.243C33.9177 138.678 35.4184 138.102 36.9191 137.537C38.6973 136.858 40.4755 136.19 42.2537 135.512C44.2375 134.762 46.2316 134.011 48.2154 133.251C50.3431 132.449 52.4708 131.637 54.5985 130.835C56.7981 130.003 58.9978 129.17 61.1974 128.337C63.3971 127.505 65.5967 126.672 67.8066 125.829C69.9446 125.017 72.0826 124.205 74.2103 123.404C76.2146 122.643 78.2087 121.882 80.213 121.132C82.0118 120.454 83.8106 119.765 85.5991 119.087C87.4287 118.398 89.2789 117.771 91.1085 117.113C93.6062 116.209 96.2787 115.345 98.3036 113.546C99.794 112.231 100.493 110.689 100.709 109.044C101.027 106.567 100.226 103.874 99.2698 101.407C98.54 99.5056 97.6766 97.676 96.6796 95.8875C94.9527 92.7833 92.9484 89.8333 90.7796 87.0272C88.2407 83.738 85.4758 80.6338 82.536 77.6941C82.423 77.5811 82.2996 77.468 82.1866 77.3447C82.0735 77.2316 81.9604 77.1082 81.8371 76.9952C78.8974 74.0555 75.7932 71.2905 72.504 68.7516C69.6979 66.5828 66.7479 64.5785 63.6437 62.8516C61.8552 61.8649 60.0256 60.9912 58.1241 60.2614C55.6572 59.3158 52.9641 58.5037 50.487 58.8224C48.8527 59.0382 47.3109 59.7475 45.9952 61.2379Z" fill="url(#paint0_linear_3943_31146)"/>
<g id="Group">
<path id="Vector_2" d="M59.2541 60.7426C58.8738 60.5884 58.5038 60.4034 58.1235 60.2595C55.6566 59.3138 52.9635 58.5018 50.4864 58.8204C48.852 59.0363 47.3102 59.7352 45.9843 61.2257C44.1855 63.2506 43.3221 65.923 42.4176 68.4208C41.7597 70.2607 41.1327 72.1108 40.4441 73.9302C39.9404 75.2458 39.447 76.5718 38.9434 77.8875C39.889 97.0573 47.7933 113.914 62.4405 127.842C64.2187 127.164 66.0072 126.496 67.7855 125.817C69.9234 125.005 72.0614 124.193 74.1891 123.391C76.1935 122.631 78.1875 121.87 80.1919 121.12C81.0656 120.791 81.9393 120.452 82.8232 120.123C62.9133 104.633 55.1837 85.1545 59.2541 60.7426Z" fill="url(#paint1_linear_3943_31146)"/>
<path id="Vector_3" d="M29.3637 103.184C29.1376 103.769 28.9217 104.355 28.6956 104.952C27.8939 107.079 27.0818 109.207 26.2801 111.335C25.5298 113.318 24.7691 115.312 24.0188 117.296C23.3404 119.075 22.6723 120.853 21.9939 122.631C21.4285 124.132 20.8529 125.632 20.2876 127.133C20.0204 127.842 19.7531 128.551 19.4756 129.271C21.8089 133.352 24.6149 137.258 27.8836 140.958C28.2331 140.824 28.5825 140.691 28.932 140.557C30.0832 140.115 31.2447 139.683 32.3959 139.241C33.8966 138.676 35.3973 138.1 36.898 137.535C38.6762 136.857 40.4545 136.189 42.2327 135.51C43.5175 135.017 44.8126 134.534 46.0975 134.04C36.6616 125.129 31.1008 114.901 29.3637 103.184Z" fill="url(#paint2_linear_3943_31146)" fill-opacity="0.84"/>
</g>
<path id="Vector_4" d="M95.0771 109.025C98.7821 105.32 91.8087 92.3402 79.5016 80.0331C67.1945 67.726 54.2142 60.7526 50.5092 64.4576C46.8043 68.1625 53.7776 81.1429 66.0847 93.45C78.3918 105.757 91.3721 112.73 95.0771 109.025Z" fill="url(#paint3_linear_3943_31146)"/>
</g>
<g id="Group 2190_2" style="mix-blend-mode:multiply" opacity="0.3">
<path id="Vector_5" d="M45.9952 61.2379C44.1964 63.2628 43.333 65.9353 42.4285 68.433C41.7706 70.2729 41.1436 72.1231 40.4549 73.9424C39.7765 75.7412 39.0879 77.5399 38.4095 79.3284C37.6489 81.3328 36.8882 83.3269 36.1379 85.3312C35.3259 87.4692 34.5138 89.6072 33.7121 91.7349C32.8795 93.9345 32.0469 96.1342 31.2041 98.3441C30.3715 100.544 29.5389 102.743 28.7064 104.943C27.9046 107.071 27.0926 109.198 26.2909 111.326C25.5405 113.31 24.7799 115.304 24.0295 117.288C23.3511 119.066 22.683 120.844 22.0046 122.622C21.4393 124.123 20.8637 125.624 20.2984 127.125C19.8564 128.276 19.4247 129.437 18.9827 130.588C18.7052 131.328 18.4276 132.069 18.1398 132.809C18.0473 133.066 17.9445 133.312 17.852 133.569C16.9064 136.067 17.7904 138.524 19.5377 140.004C21.0076 141.741 23.4745 142.635 25.9722 141.689C26.2292 141.597 26.4759 141.494 26.7328 141.402C27.4729 141.124 28.213 140.847 28.953 140.559C30.1043 140.117 31.2658 139.685 32.417 139.243C33.9177 138.678 35.4184 138.102 36.9191 137.537C38.6973 136.858 40.4755 136.19 42.2537 135.512C44.2375 134.762 46.2316 134.011 48.2154 133.251C50.3431 132.449 52.4708 131.637 54.5985 130.835C56.7981 130.003 58.9978 129.17 61.1974 128.337C63.3971 127.505 65.5967 126.672 67.8066 125.829C69.9446 125.017 72.0826 124.205 74.2103 123.404C76.2146 122.643 78.2087 121.882 80.213 121.132C82.0118 120.454 83.8106 119.765 85.5991 119.087C87.4287 118.398 89.2789 117.771 91.1085 117.113C93.6062 116.209 96.2787 115.345 98.3036 113.546C99.794 112.231 100.493 110.689 100.709 109.044C101.027 106.567 100.226 103.874 99.2698 101.407C98.54 99.5056 97.6766 97.676 96.6796 95.8875C94.9527 92.7833 92.9484 89.8333 90.7796 87.0272C88.2407 83.738 85.4758 80.6338 82.536 77.6941C82.423 77.5811 82.2996 77.468 82.1866 77.3447C82.0735 77.2316 81.9604 77.1082 81.8371 76.9952C78.8974 74.0555 75.7932 71.2905 72.504 68.7516C69.6979 66.5828 66.7479 64.5785 63.6437 62.8516C61.8552 61.8649 60.0256 60.9912 58.1241 60.2614C55.6572 59.3158 52.9641 58.5037 50.487 58.8224C48.8527 59.0382 47.3109 59.7475 45.9952 61.2379Z" fill="url(#paint4_linear_3943_31146)"/>
<g id="Group_2">
<path id="Vector_6" d="M59.2541 60.7426C58.8738 60.5884 58.5038 60.4034 58.1235 60.2595C55.6566 59.3138 52.9635 58.5018 50.4864 58.8204C48.852 59.0363 47.3102 59.7352 45.9843 61.2257C44.1855 63.2506 43.3221 65.923 42.4176 68.4208C41.7597 70.2607 41.1327 72.1108 40.4441 73.9302C39.9404 75.2458 39.447 76.5718 38.9434 77.8875C39.889 97.0573 47.7933 113.914 62.4405 127.842C64.2187 127.164 66.0072 126.496 67.7855 125.817C69.9234 125.005 72.0614 124.193 74.1891 123.391C76.1935 122.631 78.1875 121.87 80.1919 121.12C81.0656 120.791 81.9393 120.452 82.8232 120.123C62.9133 104.633 55.1837 85.1545 59.2541 60.7426Z" fill="url(#paint5_linear_3943_31146)"/>
<path id="Vector_7" d="M29.3637 103.184C29.1376 103.769 28.9217 104.355 28.6956 104.952C27.8939 107.079 27.0818 109.207 26.2801 111.335C25.5298 113.318 24.7691 115.312 24.0188 117.296C23.3404 119.075 22.6723 120.853 21.9939 122.631C21.4285 124.132 20.8529 125.632 20.2876 127.133C20.0204 127.842 19.7531 128.551 19.4756 129.271C21.8089 133.352 24.6149 137.258 27.8836 140.958C28.2331 140.824 28.5825 140.691 28.932 140.557C30.0832 140.115 31.2447 139.683 32.3959 139.241C33.8966 138.676 35.3973 138.1 36.898 137.535C38.6762 136.857 40.4545 136.189 42.2327 135.51C43.5175 135.017 44.8126 134.534 46.0975 134.04C36.6616 125.129 31.1008 114.901 29.3637 103.184Z" fill="url(#paint6_linear_3943_31146)" fill-opacity="0.84"/>
</g>
<path id="Vector_8" d="M95.0771 109.025C98.7821 105.32 91.8087 92.3402 79.5016 80.0331C67.1945 67.726 54.2142 60.7526 50.5092 64.4576C46.8043 68.1625 53.7776 81.1429 66.0847 93.45C78.3918 105.757 91.3721 112.73 95.0771 109.025Z" fill="url(#paint7_linear_3943_31146)"/>
</g>
<g id="Group 2179" opacity="0.6">
<path id="Line 1" d="M148.88 101.641L148.88 108.119" stroke="#7191FF" stroke-opacity="0.8" stroke-width="3" stroke-linecap="round"/>
<path id="Line 2" d="M152.117 104.879L145.639 104.879" stroke="#7191FF" stroke-opacity="0.8" stroke-width="3" stroke-linecap="round"/>
</g>
<g id="Group 2178">
<path id="Line 1_2" d="M54.333 39.25L49.7524 43.8306" stroke="#7191FF" stroke-opacity="0.9" stroke-width="3" stroke-linecap="round"/>
<path id="Line 2_2" d="M54.333 43.832L49.7524 39.2514" stroke="#7191FF" stroke-opacity="0.9" stroke-width="3" stroke-linecap="round"/>
</g>
<path id="Ellipse 1" d="M99.0924 56.5979C99.0924 57.6832 98.2125 58.5631 97.1272 58.5631C96.0419 58.5631 95.1621 57.6832 95.1621 56.5979C95.1621 55.5126 96.0419 54.6328 97.1272 54.6328C98.2125 54.6328 99.0924 55.5126 99.0924 56.5979Z" stroke="#7191FF" stroke-width="3"/>
<path id="Ellipse 15" d="M49.6759 18.4795C49.6759 20.3408 48.167 21.8497 46.3057 21.8497C44.4444 21.8497 42.9355 20.3408 42.9355 18.4795C42.9355 16.6183 44.4444 15.1094 46.3057 15.1094C48.167 15.1094 49.6759 16.6183 49.6759 18.4795Z" stroke="#7191FF" stroke-opacity="0.4" stroke-width="2.5"/>
<path id="Ellipse 2" d="M158.5 57.1728C158.5 58.2153 157.655 59.0604 156.612 59.0604C155.57 59.0604 154.725 58.2153 154.725 57.1728C154.725 56.1303 155.57 55.2852 156.612 55.2852C157.655 55.2852 158.5 56.1303 158.5 57.1728Z" stroke="#7191FF" stroke-width="2"/>
<path id="Ellipse 4" opacity="0.7" d="M98.4373 2.8876C98.4373 3.9301 97.5922 4.77521 96.5497 4.77521C95.5072 4.77521 94.6621 3.9301 94.6621 2.8876C94.6621 1.84511 95.5072 1 96.5497 1C97.5922 1 98.4373 1.84511 98.4373 2.8876Z" stroke="#7191FF" stroke-width="2"/>
<ellipse id="Ellipse 9" opacity="0.4" cx="122.539" cy="38.7769" rx="2.31008" ry="2.31008" fill="#7191FF"/>
<ellipse id="Ellipse 13" opacity="0.2" cx="138.132" cy="121.858" rx="1.73256" ry="1.73256" fill="#7191FF"/>
<ellipse id="Ellipse 8" cx="118.496" cy="102.221" rx="1.73256" ry="1.73256" fill="#7191FF"/>
<path id="Star 1" d="M75.8786 21.417C76.3415 20.6223 77.4896 20.6223 77.9524 21.417L79.8233 24.6291C79.9929 24.9202 80.277 25.1266 80.6063 25.1979L84.2392 25.9846C85.1381 26.1793 85.4929 27.2712 84.8801 27.957L82.4034 30.7289C82.1789 30.9801 82.0704 31.3141 82.1043 31.6493L82.4788 35.3476C82.5714 36.2626 81.6426 36.9374 80.801 36.5666L77.3994 35.0676C77.0911 34.9318 76.7399 34.9318 76.4316 35.0676L73.0301 36.5666C72.1884 36.9374 71.2596 36.2626 71.3523 35.3476L71.7267 31.6493C71.7606 31.3141 71.6521 30.9801 71.4276 30.7289L68.9509 27.957C68.3381 27.2712 68.6929 26.1793 69.5918 25.9847L73.2248 25.1979C73.554 25.1266 73.8382 24.9202 74.0077 24.6291L75.8786 21.417Z" fill="#7191FF" fill-opacity="0.6"/>
<path id="Star 2" d="M122.37 61.0139C123.218 59.5569 125.323 59.5569 126.172 61.0139L128.824 65.5671C129.135 66.1008 129.656 66.4792 130.259 66.61L135.409 67.7251C137.057 68.082 137.707 70.0838 136.584 71.3411L133.073 75.2703C132.662 75.7309 132.463 76.3433 132.525 76.9578L133.056 82.2002C133.226 83.8777 131.523 85.1149 129.98 84.435L125.158 82.3102C124.593 82.0611 123.949 82.0611 123.384 82.3102L118.562 84.435C117.019 85.1149 115.316 83.8777 115.486 82.2002L116.017 76.9578C116.079 76.3433 115.88 75.7309 115.468 75.2703L111.958 71.3411C110.834 70.0838 111.485 68.082 113.133 67.7251L118.282 66.61C118.886 66.4792 119.407 66.1008 119.718 65.5671L122.37 61.0139Z" fill="url(#paint8_linear_3943_31146)"/>
<path id="Star 3" d="M129.182 15.343C129.568 14.6807 130.524 14.6807 130.91 15.343L131.878 17.0046C132.019 17.2472 132.256 17.4192 132.53 17.4787L134.41 17.8856C135.159 18.0478 135.455 18.9578 134.944 19.5293L133.663 20.9632C133.476 21.1726 133.385 21.4509 133.413 21.7302L133.607 23.6434C133.684 24.4059 132.91 24.9683 132.209 24.6592L130.449 23.8838C130.192 23.7706 129.9 23.7706 129.643 23.8838L127.883 24.6592C127.182 24.9683 126.408 24.4059 126.485 23.6434L126.679 21.7302C126.707 21.4509 126.617 21.1726 126.429 20.9632L125.148 19.5293C124.638 18.9578 124.933 18.0478 125.682 17.8856L127.562 17.4787C127.836 17.4192 128.073 17.2472 128.214 17.0046L129.182 15.343Z" fill="url(#paint9_linear_3943_31146)"/>
<g id="Ellipse 18" filter="url(#filter0_f_3943_31146)">
<ellipse cx="57.2797" cy="162.862" rx="44.4691" ry="1.15504" fill="#7191FF" fill-opacity="0.4"/>
</g>
</g>
<defs>
<filter id="filter0_f_3943_31146" x="0.810547" y="149.707" width="112.938" height="26.3105" filterUnits="userSpaceOnUse" color-interpolation-filters="sRGB">
<feFlood flood-opacity="0" result="BackgroundImageFix"/>
<feBlend mode="normal" in="SourceGraphic" in2="BackgroundImageFix" result="shape"/>
<feGaussianBlur stdDeviation="6" result="effect1_foregroundBlur_3943_31146"/>
</filter>
<linearGradient id="paint0_linear_3943_31146" x1="52.4145" y1="132.276" x2="33.3988" y2="92.7027" gradientUnits="userSpaceOnUse">
<stop stop-color="#E3E9FF"/>
<stop offset="0.276154" stop-color="#D5DEFF"/>
<stop offset="1" stop-color="#EAEFFF"/>
</linearGradient>
<linearGradient id="paint1_linear_3943_31146" x1="45.7329" y1="64.9482" x2="69.374" y2="126.107" gradientUnits="userSpaceOnUse">
<stop stop-color="#E9EEFF"/>
<stop offset="0.299817" stop-color="#FAFBFF"/>
<stop offset="1" stop-color="#FAFBFF" stop-opacity="0.7"/>
</linearGradient>
<linearGradient id="paint2_linear_3943_31146" x1="23.1198" y1="114.286" x2="37.51" y2="137.413" gradientUnits="userSpaceOnUse">
<stop stop-color="#F6F8FE" stop-opacity="0.7"/>
<stop offset="0.379698" stop-color="#FAFCFF"/>
<stop offset="1" stop-color="#FAFCFF" stop-opacity="0.9"/>
</linearGradient>
<linearGradient id="paint3_linear_3943_31146" x1="48.3037" y1="115.31" x2="72.9727" y2="74.7091" gradientUnits="userSpaceOnUse">
<stop stop-color="#8CA9FF"/>
<stop offset="1" stop-color="#E6EBFF"/>
</linearGradient>
<linearGradient id="paint4_linear_3943_31146" x1="52.4145" y1="132.276" x2="33.3988" y2="92.7027" gradientUnits="userSpaceOnUse">
<stop stop-color="#E3E9FF"/>
<stop offset="0.276154" stop-color="#D5DEFF"/>
<stop offset="1" stop-color="#EAEFFF"/>
</linearGradient>
<linearGradient id="paint5_linear_3943_31146" x1="45.7329" y1="64.9482" x2="69.374" y2="126.107" gradientUnits="userSpaceOnUse">
<stop stop-color="#E9EEFF"/>
<stop offset="0.299817" stop-color="#FAFBFF"/>
<stop offset="1" stop-color="#FAFBFF" stop-opacity="0.7"/>
</linearGradient>
<linearGradient id="paint6_linear_3943_31146" x1="23.1198" y1="114.286" x2="37.51" y2="137.413" gradientUnits="userSpaceOnUse">
<stop stop-color="#F6F8FE" stop-opacity="0.7"/>
<stop offset="0.379698" stop-color="#FAFCFF"/>
<stop offset="1" stop-color="#FAFCFF" stop-opacity="0.9"/>
</linearGradient>
<linearGradient id="paint7_linear_3943_31146" x1="48.3037" y1="115.31" x2="72.9727" y2="74.7091" gradientUnits="userSpaceOnUse">
<stop stop-color="#8CA9FF"/>
<stop offset="1" stop-color="#E6EBFF"/>
</linearGradient>
<linearGradient id="paint8_linear_3943_31146" x1="114.453" y1="71.033" x2="134.089" y2="66.9903" gradientUnits="userSpaceOnUse">
<stop stop-color="#7191FF"/>
<stop offset="1" stop-color="#7191FF" stop-opacity="0.8"/>
</linearGradient>
<linearGradient id="paint9_linear_3943_31146" x1="126.581" y1="21.9447" x2="133.511" y2="17.902" gradientUnits="userSpaceOnUse">
<stop stop-color="#7191FF"/>
<stop offset="1" stop-color="#7191FF" stop-opacity="0.8"/>
</linearGradient>
</defs>
</svg>
