<svg width="266" height="176" viewBox="0 0 266 176" fill="none" xmlns="http://www.w3.org/2000/svg">
<g id="illust-empty page">
<g id="Group">
<g id="Vector" filter="url(#filter0_f_2409_18670)">
<path d="M223.85 120.981L159.02 166.751C150.27 172.851 132.82 172.011 123.86 168.241L5.85037 122.111C3.61037 121.181 3.34037 118.111 5.39037 116.811L79.3304 69.7907C80.1404 69.2707 81.1504 69.1807 82.0504 69.5307L223.22 115.751C225.43 116.631 225.78 119.601 223.85 120.981Z" fill="url(#paint0_linear_2409_18670)" fill-opacity="0.6"/>
</g>
</g>
<g id="Group 2175">
<path id="Vector_2" d="M120.251 0.500679L38.9005 53.0507C37.4705 54.0007 37.1205 55.9407 38.1305 57.3207C44.1005 65.4407 63.3905 92.3007 82.4205 125.361C97.7005 151.901 117.991 161.471 132.151 164.861C141.391 167.071 151.121 165.091 158.891 159.631L224.591 113.411C226.621 111.981 226.141 108.861 223.781 108.101C215.331 105.381 199.321 99.8307 187.151 93.1807C166.841 82.0907 152.481 37.1707 124.251 1.14068C123.301 -0.0893208 121.551 -0.359321 120.251 0.500679Z" fill="url(#paint1_linear_2409_18670)"/>
<path id="Vector_3" opacity="0.9" d="M130.51 26.1407L59.0304 71.6307C58.0904 72.2207 56.8504 71.9407 56.2604 71.0007L46.6804 57.3407C46.0904 56.4007 46.3704 55.1607 47.3104 54.5707L119.8 9.07066C120.74 8.48066 121.98 8.76066 122.57 9.70066L131.14 23.3607C131.74 24.3107 131.45 25.5507 130.51 26.1407Z" fill="url(#paint2_linear_2409_18670)"/>
<g id="Group 2174">
<path id="Vector_4" d="M159.941 81.7208L97.5406 120.881C95.5106 122.151 92.8406 121.541 91.5706 119.511C90.3006 117.481 90.9106 114.811 92.9406 113.541L155.341 74.3808C157.371 73.1108 160.041 73.7208 161.311 75.7508C162.581 77.7708 161.961 80.4508 159.941 81.7208Z" fill="url(#paint3_linear_2409_18670)"/>
<path id="Vector_5" d="M126.39 80.2807L88.0503 104.341C86.3603 105.401 84.1403 104.891 83.0803 103.201L82.3003 101.961C81.2403 100.271 81.7503 98.0507 83.4403 96.9907L121.78 72.9307C123.47 71.8707 125.69 72.3807 126.75 74.0707L127.53 75.3107C128.59 77.0007 128.08 79.2307 126.39 80.2807Z" fill="url(#paint4_linear_2409_18670)"/>
<path id="Vector_6" d="M171.08 96.6608L108.68 135.821C106.65 137.091 103.98 136.481 102.71 134.451C101.44 132.421 102.05 129.751 104.08 128.481L166.48 89.3208C168.51 88.0508 171.18 88.6608 172.45 90.6908C173.72 92.7208 173.1 95.3908 171.08 96.6608Z" fill="url(#paint5_linear_2409_18670)"/>
<path id="Vector_7" d="M184.64 109.961L122.24 149.121C120.21 150.391 117.54 149.781 116.27 147.751C115 145.721 115.61 143.051 117.64 141.781L180.04 102.621C182.07 101.351 184.74 101.961 186.01 103.991C187.28 106.011 186.67 108.691 184.64 109.961Z" fill="url(#paint6_linear_2409_18670)"/>
</g>
</g>
<g id="Group_2">
<g id="Vector_8" filter="url(#filter1_f_2409_18670)">
<path d="M250.827 112.784L163.717 108.004C161.447 107.884 159.447 110.684 159.247 114.284L159.017 118.414C158.817 122.004 160.497 125.014 162.767 125.144L249.877 129.924C252.147 130.044 254.147 127.234 254.347 123.644L254.577 119.514C254.777 115.924 253.097 112.914 250.827 112.784Z" fill="url(#paint7_linear_2409_18670)" fill-opacity="0.8"/>
</g>
<g id="Vector_9" filter="url(#filter2_f_2409_18670)">
<path d="M162.805 112.848C162.576 113.132 162.283 113.332 161.965 113.422L153.124 115.943C151.877 116.301 150.757 114.911 151.046 113.364L153.077 102.388C153.149 101.993 153.31 101.635 153.539 101.346L170.226 80.6317C170.904 79.7894 172.002 79.7894 172.677 80.6317L179.491 89.0911C180.17 89.9333 180.17 91.2967 179.491 92.1337L162.805 112.848Z" fill="#E2E8F6"/>
</g>
<g id="Vector_10" style="mix-blend-mode:multiply" filter="url(#filter3_f_2409_18670)">
<path d="M187.805 122.548C187.576 122.769 187.283 122.925 186.965 122.995L178.124 124.956C176.877 125.234 175.757 124.153 176.046 122.95L178.077 114.413C178.149 114.106 178.31 113.828 178.539 113.602L195.226 97.4913C195.904 96.8362 197.002 96.8362 197.677 97.4913L204.491 104.071C205.17 104.726 205.17 105.786 204.491 106.437L187.805 122.548Z" fill="#A0B0D5"/>
</g>
<g id="Vector_11" filter="url(#filter4_d_2409_18670)">
<path d="M184.1 117.711C183.56 118.251 182.87 118.631 182.12 118.801L161.27 123.591C158.33 124.271 155.69 121.631 156.37 118.691L161.16 97.8407C161.33 97.0907 161.71 96.4107 162.25 95.8607L201.6 56.5107C203.2 54.9107 205.79 54.9107 207.38 56.5107L223.45 72.5807C225.05 74.1807 225.05 76.7707 223.45 78.3607L184.1 117.711Z" fill="url(#paint8_linear_2409_18670)"/>
</g>
<g id="Vector_12" filter="url(#filter5_d_2409_18670)">
<path d="M240.62 55.4106C242.22 57.0106 242.22 59.6006 240.62 61.1906L233.04 68.7706C231.44 70.3706 228.85 70.3706 227.26 68.7706L211.2 52.7006C209.6 51.1006 209.6 48.5106 211.2 46.9206L218.78 39.3406C220.38 37.7406 222.97 37.7406 224.56 39.3406L240.62 55.4106Z" fill="url(#paint9_linear_2409_18670)"/>
</g>
</g>
</g>
<defs>
<filter id="filter0_f_2409_18670" x="0" y="65.3213" width="229.11" height="109.88" filterUnits="userSpaceOnUse" color-interpolation-filters="sRGB">
<feFlood flood-opacity="0" result="BackgroundImageFix"/>
<feBlend mode="normal" in="SourceGraphic" in2="BackgroundImageFix" result="shape"/>
<feGaussianBlur stdDeviation="2" result="effect1_foregroundBlur_2409_18670"/>
</filter>
<filter id="filter1_f_2409_18670" x="157" y="106.001" width="99.5923" height="25.9274" filterUnits="userSpaceOnUse" color-interpolation-filters="sRGB">
<feFlood flood-opacity="0" result="BackgroundImageFix"/>
<feBlend mode="normal" in="SourceGraphic" in2="BackgroundImageFix" result="shape"/>
<feGaussianBlur stdDeviation="1" result="effect1_foregroundBlur_2409_18670"/>
</filter>
<filter id="filter2_f_2409_18670" x="137" y="66" width="57" height="64" filterUnits="userSpaceOnUse" color-interpolation-filters="sRGB">
<feFlood flood-opacity="0" result="BackgroundImageFix"/>
<feBlend mode="normal" in="SourceGraphic" in2="BackgroundImageFix" result="shape"/>
<feGaussianBlur stdDeviation="7" result="effect1_foregroundBlur_2409_18670"/>
</filter>
<filter id="filter3_f_2409_18670" x="162" y="83" width="57" height="56" filterUnits="userSpaceOnUse" color-interpolation-filters="sRGB">
<feFlood flood-opacity="0" result="BackgroundImageFix"/>
<feBlend mode="normal" in="SourceGraphic" in2="BackgroundImageFix" result="shape"/>
<feGaussianBlur stdDeviation="7" result="effect1_foregroundBlur_2409_18670"/>
</filter>
<filter id="filter4_d_2409_18670" x="132.262" y="35.3107" width="116.388" height="116.388" filterUnits="userSpaceOnUse" color-interpolation-filters="sRGB">
<feFlood flood-opacity="0" result="BackgroundImageFix"/>
<feColorMatrix in="SourceAlpha" type="matrix" values="0 0 0 0 0 0 0 0 0 0 0 0 0 0 0 0 0 0 127 0" result="hardAlpha"/>
<feOffset dy="4"/>
<feGaussianBlur stdDeviation="12"/>
<feComposite in2="hardAlpha" operator="out"/>
<feColorMatrix type="matrix" values="0 0 0 0 0.960784 0 0 0 0 0.960784 0 0 0 0 0.960784 0 0 0 1 0"/>
<feBlend mode="normal" in2="BackgroundImageFix" result="effect1_dropShadow_2409_18670"/>
<feBlend mode="normal" in="SourceGraphic" in2="effect1_dropShadow_2409_18670" result="shape"/>
</filter>
<filter id="filter5_d_2409_18670" x="186" y="18.1406" width="79.8201" height="79.83" filterUnits="userSpaceOnUse" color-interpolation-filters="sRGB">
<feFlood flood-opacity="0" result="BackgroundImageFix"/>
<feColorMatrix in="SourceAlpha" type="matrix" values="0 0 0 0 0 0 0 0 0 0 0 0 0 0 0 0 0 0 127 0" result="hardAlpha"/>
<feOffset dy="4"/>
<feGaussianBlur stdDeviation="12"/>
<feComposite in2="hardAlpha" operator="out"/>
<feColorMatrix type="matrix" values="0 0 0 0 0.960784 0 0 0 0 0.960784 0 0 0 0 0.960784 0 0 0 1 0"/>
<feBlend mode="normal" in2="BackgroundImageFix" result="effect1_dropShadow_2409_18670"/>
<feBlend mode="normal" in="SourceGraphic" in2="effect1_dropShadow_2409_18670" result="shape"/>
</filter>
<linearGradient id="paint0_linear_2409_18670" x1="22.8746" y1="77.9943" x2="243.39" y2="176.474" gradientUnits="userSpaceOnUse">
<stop stop-color="#BDC8DA" stop-opacity="0"/>
<stop offset="1" stop-color="#56588C"/>
</linearGradient>
<linearGradient id="paint1_linear_2409_18670" x1="130" y1="53.0007" x2="256" y2="120.501" gradientUnits="userSpaceOnUse">
<stop stop-color="white"/>
<stop offset="0.338309" stop-color="#F5F7FD"/>
<stop offset="1" stop-color="#DBE2F6"/>
</linearGradient>
<linearGradient id="paint2_linear_2409_18670" x1="54.46" y1="62.2901" x2="118.874" y2="21.8619" gradientUnits="userSpaceOnUse">
<stop stop-color="#DBE2F6"/>
<stop offset="1" stop-color="#DBE2F6" stop-opacity="0.2"/>
</linearGradient>
<linearGradient id="paint3_linear_2409_18670" x1="94.6384" y1="117.586" x2="153.831" y2="80.4347" gradientUnits="userSpaceOnUse">
<stop stop-color="#DBE2F6" stop-opacity="0.8"/>
<stop offset="1" stop-color="#DBE2F6" stop-opacity="0"/>
</linearGradient>
<linearGradient id="paint4_linear_2409_18670" x1="84.6621" y1="101.362" x2="122.382" y2="77.6876" gradientUnits="userSpaceOnUse">
<stop stop-color="#DBE2F6" stop-opacity="0.8"/>
<stop offset="1" stop-color="#DBE2F6" stop-opacity="0"/>
</linearGradient>
<linearGradient id="paint5_linear_2409_18670" x1="105.778" y1="132.53" x2="164.971" y2="95.379" gradientUnits="userSpaceOnUse">
<stop stop-color="#DBE2F6" stop-opacity="0.8"/>
<stop offset="1" stop-color="#DBE2F6" stop-opacity="0"/>
</linearGradient>
<linearGradient id="paint6_linear_2409_18670" x1="119.34" y1="145.826" x2="178.533" y2="108.675" gradientUnits="userSpaceOnUse">
<stop stop-color="#DBE2F6" stop-opacity="0.8"/>
<stop offset="1" stop-color="#DBE2F6" stop-opacity="0"/>
</linearGradient>
<linearGradient id="paint7_linear_2409_18670" x1="163.305" y1="116.597" x2="244.219" y2="121.031" gradientUnits="userSpaceOnUse">
<stop stop-color="#868DB3"/>
<stop offset="0.0247" stop-color="#888FB4" stop-opacity="0.9753"/>
<stop offset="0.33" stop-color="#A5A9C9" stop-opacity="0.5846"/>
<stop offset="0.7539" stop-color="#B7BAD6" stop-opacity="0.2461"/>
<stop offset="1" stop-color="#BDC0DA" stop-opacity="0"/>
</linearGradient>
<linearGradient id="paint8_linear_2409_18670" x1="175.288" y1="82.3688" x2="197.359" y2="104.44" gradientUnits="userSpaceOnUse">
<stop stop-color="white"/>
<stop offset="0.365" stop-color="white"/>
<stop offset="0.81" stop-color="#E5E9F4"/>
</linearGradient>
<linearGradient id="paint9_linear_2409_18670" x1="214.755" y1="42.9009" x2="236.826" y2="64.9717" gradientUnits="userSpaceOnUse">
<stop offset="0.27" stop-color="white"/>
<stop offset="0.83" stop-color="#E5E9F4"/>
<stop offset="1" stop-color="#F4F7FF"/>
</linearGradient>
</defs>
</svg>
