<svg width="82" height="20" viewBox="0 0 82 20" fill="none" xmlns="http://www.w3.org/2000/svg">
<g id="logotype_header">
<path id="Vector" d="M42.9195 6.57019H45.4195L46.0845 2.9502H49.3695L48.6845 6.57019H51.9195L51.4195 9.34019H48.1645L47.2045 14.3652C46.9295 15.8652 47.7045 16.1602 48.5995 16.1602C49.1023 16.1303 49.5908 15.9812 50.0245 15.7252L50.9545 18.2902C49.9614 18.7869 48.865 19.0422 47.7545 19.0352C45.2545 19.0352 43.3995 17.1852 43.8945 14.5952L44.8945 9.34019H42.3945L42.9195 6.57019Z" fill="black"/>
<path id="Vector_2" d="M66.3259 11.9548C66.3259 15.9798 62.4409 19.0348 58.7159 19.0348C54.4459 19.0348 52.2559 16.3648 52.2559 13.3398C52.2559 9.28477 56.1459 6.25977 59.8659 6.25977C64.1359 6.25977 66.3259 8.92976 66.3259 11.9548ZM62.9359 11.9548C62.9359 10.3898 61.8659 9.13477 59.8659 9.13477C59.3124 9.13213 58.764 9.23902 58.252 9.44928C57.7401 9.65954 57.2748 9.96902 56.8831 10.3599C56.4913 10.7507 56.1807 11.2153 55.9692 11.7267C55.7577 12.2381 55.6495 12.7863 55.6509 13.3398C55.6509 14.9048 56.7209 16.1598 58.7159 16.1598C59.2697 16.1631 59.8187 16.0567 60.3312 15.8467C60.8437 15.6367 61.3096 15.3274 61.7019 14.9364C62.0942 14.5455 62.4053 14.0807 62.617 13.569C62.8288 13.0572 62.9372 12.5086 62.9359 11.9548Z" fill="black"/>
<path id="Vector_3" d="M24.9043 18.7248L27.1543 6.56977H30.4993L30.1743 8.31477C30.575 7.70509 31.116 7.20034 31.7519 6.84279C32.3878 6.48524 33.1002 6.28531 33.8293 6.25977C34.3768 6.26779 34.9185 6.37274 35.4293 6.56977L34.8243 9.64477C34.273 9.43825 33.6925 9.32013 33.1043 9.29477C31.6043 9.29477 29.9093 10.0598 29.4493 12.5448L28.2993 18.7248H24.9043Z" fill="black"/>
<path id="Vector_4" d="M69.5555 6.56965H72.7805L72.5755 8.06965C73.685 6.9349 75.1987 6.28588 76.7855 6.26465C79.7155 6.26465 81.4455 8.26465 80.9005 11.1546L79.5005 18.7246H76.1205L77.3805 11.9996C77.6805 10.3296 76.7205 9.42465 75.2255 9.42465C74.4614 9.39384 73.7112 9.63601 73.1093 10.1078C72.5074 10.5796 72.0931 11.2502 71.9406 11.9996L70.6855 18.7446H67.3105L69.5555 6.56965Z" fill="black"/>
<path id="Vector_5" d="M35.3457 18.7253H38.6357L40.9057 6.57031H37.6207L35.3457 18.7253Z" fill="black"/>
<path id="Vector_6" d="M39.8642 0.955464C39.5873 0.945458 39.3111 0.990636 39.0517 1.08837C38.7924 1.1861 38.5551 1.33444 38.3536 1.52474C38.1521 1.71505 37.9905 1.94352 37.8782 2.19687C37.7658 2.45022 37.705 2.72338 37.6992 3.00046C37.7259 3.55601 37.9654 4.07996 38.3681 4.46368C38.7707 4.8474 39.3055 5.06145 39.8617 5.06145C40.4179 5.06145 40.9528 4.8474 41.3554 4.46368C41.758 4.07996 41.9975 3.55601 42.0242 3.00046C42.0191 2.72361 41.9589 2.45056 41.8471 2.19724C41.7353 1.94392 41.5741 1.7154 41.373 1.52503C41.172 1.33466 40.935 1.18625 40.6759 1.08846C40.4169 0.990667 40.1409 0.945456 39.8642 0.955464Z" fill="black"/>
<path id="Vector_7" d="M6.17072 7.78477C5.84205 8.17918 5.55237 8.6045 5.30572 9.05477C5.0455 9.51774 4.82311 10.001 4.64072 10.4998C4.27786 11.4013 4.14554 12.3792 4.25572 13.3448C4.30706 13.7304 4.44249 14.0999 4.65245 14.4274C4.8624 14.7549 5.14174 15.0322 5.47072 15.2398C6.25407 15.6323 7.15391 15.7247 8.00072 15.4998C8.961 15.2863 9.84977 14.8281 10.5807 14.1698C11.3578 13.4742 11.9913 12.6334 12.4457 11.6948C12.5007 11.5798 12.5557 11.4598 12.6057 11.3398C12.6557 11.2198 12.7057 11.0998 12.7457 10.9848C12.8199 10.7841 12.8735 10.5763 12.9057 10.3648C12.9124 10.2799 12.9124 10.1946 12.9057 10.1098C12.9107 10.0348 12.9107 9.95968 12.9057 9.88477C12.8895 9.77055 12.8522 9.66034 12.7957 9.55977C12.7844 9.53576 12.7692 9.5138 12.7507 9.49477C12.7272 9.47088 12.7002 9.45065 12.6707 9.43477C12.6058 9.39507 12.5318 9.37269 12.4557 9.36977C12.3608 9.36717 12.2665 9.38606 12.18 9.42502C12.0934 9.46398 12.0167 9.52201 11.9557 9.59477C11.7397 9.89079 11.5958 10.2332 11.5357 10.5948C11.4833 10.8302 11.4482 11.0692 11.4307 11.3098C11.4132 11.5545 11.4132 11.8001 11.4307 12.0448C11.4554 12.5405 11.5497 13.0303 11.7107 13.4998C11.7855 13.7224 11.8757 13.9396 11.9807 14.1498C12.0803 14.3434 12.1975 14.5275 12.3307 14.6998C12.8661 15.3794 13.6437 15.8256 14.5007 15.9448C14.9179 16.0041 15.3427 15.9803 15.7507 15.8748C16.1854 15.7589 16.5977 15.5713 16.9707 15.3198C17.7981 14.7311 18.4902 13.9725 19.0007 13.0948C19.5818 12.1571 20.0405 11.1489 20.3657 10.0948C21.028 7.90132 21.2822 5.60496 21.1157 3.31977L24.4357 3.13477C24.5867 5.81689 24.2478 8.50408 23.4357 11.0648C23.0117 12.3744 22.4255 13.6257 21.6907 14.7898C20.9161 16.0375 19.8849 17.1061 18.6657 17.9248C18.0015 18.3566 17.2697 18.6743 16.5007 18.8648C15.7025 19.062 14.8729 19.0977 14.0607 18.9698C13.2542 18.8458 12.4787 18.5692 11.7757 18.1548C11.0717 17.7393 10.4552 17.1908 9.96072 16.5398C9.71921 16.2263 9.50667 15.8916 9.32572 15.5398C9.15471 15.1942 9.00931 14.8366 8.89072 14.4698C8.66021 13.7538 8.52406 13.0109 8.48572 12.2598C8.46073 11.8852 8.46073 11.5093 8.48572 11.1348C8.5091 10.7528 8.5626 10.3733 8.64572 9.99977C8.72783 9.60293 8.84667 9.21459 9.00072 8.83977C9.17773 8.40867 9.42248 8.00863 9.72572 7.65477C10.0747 7.25388 10.5081 6.93523 10.9948 6.7217C11.4815 6.50817 12.0094 6.40506 12.5407 6.41977C13.087 6.43874 13.6205 6.58971 14.0957 6.85977C14.3402 6.99598 14.5655 7.16412 14.7657 7.35977C14.973 7.54849 15.1546 7.76367 15.3057 7.99977C15.5611 8.43342 15.7309 8.91209 15.8057 9.40977C15.8414 9.64309 15.8598 9.87873 15.8607 10.1148C15.8595 10.339 15.8428 10.5629 15.8107 10.7848C15.7531 11.1867 15.6559 11.5819 15.5207 11.9648C15.4557 12.1448 15.3907 12.3098 15.3207 12.4648C15.2507 12.6198 15.1807 12.7998 15.1057 12.9648C14.4951 14.2741 13.632 15.4499 12.5657 16.4248C11.4594 17.445 10.1068 18.1601 8.64072 18.4998C7.8794 18.6778 7.09484 18.7352 6.31572 18.6698C5.47317 18.6056 4.65445 18.36 3.91572 17.9498C3.15757 17.5197 2.51171 16.9167 2.03072 16.1898C1.56846 15.4894 1.25529 14.7014 1.11072 13.8748C0.978001 13.1014 0.964512 12.3122 1.07072 11.5348C1.16276 10.8093 1.33034 10.0954 1.57072 9.40477C1.79937 8.73227 2.08369 8.08002 2.42072 7.45477C2.76356 6.81228 3.16528 6.203 3.62072 5.63477L6.17072 7.78477Z" fill="black"/>
</g>
</svg>
